Coordinates
version=1
nRows=8
nColumns=63
inDegrees=yes

Units are S.I. units (second, meters, Newtons, ...)
If the header above contains a line with 'inDegrees', this indicates whether rotational values are in degrees (yes) or radians (no).

endheader
time	pelvis_tilt	pelvis_list	pelvis_rotation	pelvis_tx	pelvis_ty	pelvis_tz	hip_flexion_r	hip_adduction_r	hip_rotation_r	knee_angle_r	knee_angle_r_beta	ankle_angle_r	subtalar_angle_r	mtp_angle_r	hip_flexion_l	hip_adduction_l	hip_rotation_l	knee_angle_l	knee_angle_l_beta	ankle_angle_l	subtalar_angle_l	mtp_angle_l	L5_S1_Flex_Ext	L5_S1_Lat_Bending	L5_S1_axial_rotation	L4_L5_Flex_Ext	L4_L5_Lat_Bending	L4_L5_axial_rotation	L3_L4_Flex_Ext	L3_L4_Lat_Bending	L3_L4_axial_rotation	L2_L3_Flex_Ext	L2_L3_Lat_Bending	L2_L3_axial_rotation	L1_L2_Flex_Ext	L1_L2_Lat_Bending	L1_L2_axial_rotation	L1_T12_Flex_Ext	L1_T12_Lat_Bending	L1_T12_axial_rotation	Abs_r3	Abs_r2	Abs_r1	Abs_t1	Abs_t2	neck_flexion	neck_bending	neck_rotation	arm_flex_r	arm_add_r	arm_rot_r	elbow_flex_r	pro_sup_r	wrist_flex_r	wrist_dev_r	arm_flex_l	arm_add_l	arm_rot_l	elbow_flex_l	pro_sup_l	wrist_flex_l	wrist_dev_l
8.500000	0.977736	-8.519994	101.657882	0.236718	0.763329	0.739181	1.337626	1.071066	-2.517307	1.231956	0.021502	31.493346	-4.994720	0.000000	-0.330901	-3.023853	12.371517	0.360798	0.006297	29.983229	2.905195	0.000000	0.206092	0.792689	-0.236237	0.382733	1.054277	-0.251001	0.338588	1.927345	-0.251001	0.235542	1.927345	-0.206707	0.191377	1.616452	-0.191942	0.117761	1.227876	-0.177177	1.472093	8.967062	-1.313877	0.000000	0.000000	28.024004	6.140580	13.171667	8.437289	-10.873280	71.577484	39.992907	54.466893	0.797783	1.039846	14.311135	7.935433	184.761207	6.956559	17.464215	-7.946889	-12.312792
8.519231	0.835357	-8.488340	101.339982	0.236568	0.763347	0.739864	1.278251	0.889837	-0.875764	1.028209	0.017946	31.481057	-5.721034	0.000000	-0.379115	-2.776631	12.069708	0.352460	0.006152	30.478566	2.042581	0.000000	0.237387	0.767801	-0.293840	0.440852	1.021176	-0.312205	0.390004	1.866832	-0.312205	0.271310	1.866832	-0.257110	0.220438	1.565701	-0.238745	0.135643	1.189324	-0.220380	1.695635	8.685523	-1.634250	0.000000	0.000000	28.056283	6.721021	15.023977	8.482871	-10.703053	71.925577	40.055781	53.676498	1.034901	1.408607	14.478964	6.084910	168.669724	11.115660	22.267319	-6.402362	-10.203757
8.538462	0.691156	-8.464205	101.020618	0.236356	0.763393	0.740501	1.218121	0.701065	0.578977	0.866124	0.015117	31.349830	-6.458004	0.000000	-0.434208	-2.528219	11.705963	0.340847	0.005949	30.774936	1.272874	0.000000	0.272124	0.742956	-0.348980	0.505362	0.988132	-0.370791	0.447073	1.806424	-0.370791	0.311011	1.806424	-0.305357	0.252695	1.515036	-0.283546	0.155492	1.150839	-0.261735	1.943758	8.404468	-1.940920	0.000000	0.000000	28.089732	7.234941	16.836723	8.570335	-10.577712	72.387255	40.153275	52.840343	1.289714	1.813407	14.381946	4.428925	156.473000	14.447748	25.398227	-4.597162	-8.422885
8.557692	0.543853	-8.431222	100.716142	0.236086	0.763446	0.741167	1.147220	0.507614	1.913861	0.750290	0.013095	31.139833	-7.314429	0.000000	-0.505958	-2.282120	11.345605	0.326799	0.005704	30.907489	0.565086	0.000000	0.306937	0.716909	-0.397004	0.570013	0.953489	-0.421817	0.504267	1.743092	-0.421817	0.350799	1.743092	-0.347378	0.285022	1.461921	-0.322566	0.175384	1.110492	-0.297753	2.192422	8.109817	-2.208017	0.000000	0.000000	28.121025	7.681635	18.486966	8.706184	-10.481406	72.904639	40.266040	52.040444	1.589078	2.263493	14.227336	2.748700	143.930323	17.850477	28.926026	-2.888094	-6.648119
8.576923	0.398958	-8.381797	100.414542	0.235775	0.763502	0.741893	1.065448	0.315219	3.073893	0.676199	0.011802	30.932581	-8.148226	0.000000	-0.598408	-2.044219	10.988263	0.311160	0.005431	30.954327	-0.077906	0.000000	0.339710	0.690518	-0.430765	0.630875	0.918388	-0.457688	0.558109	1.678925	-0.457688	0.388254	1.678925	-0.376919	0.315455	1.408104	-0.349996	0.194110	1.069612	-0.323074	2.426513	7.811273	-2.395785	0.000000	0.000000	28.148379	7.997635	19.870654	8.874003	-10.407819	73.398710	40.383341	51.341050	1.908726	2.779012	13.939218	1.105614	131.171023	21.270197	32.483193	-1.335053	-4.884568
8.596154	0.260602	-8.318844	100.135663	0.235388	0.763550	0.742706	0.979621	0.127412	4.016163	0.634823	0.011080	30.792684	-8.864843	0.000000	-0.698060	-1.818196	10.647387	0.294897	0.005147	30.983976	-0.621350	0.000000	0.369780	0.664357	-0.452722	0.686718	0.883595	-0.481017	0.607511	1.615319	-0.481017	0.422621	1.615319	-0.396132	0.343378	1.354758	-0.367837	0.211292	1.029090	-0.339542	2.641300	7.515344	-2.517905	0.000000	0.000000	28.170953	8.180955	20.965882	9.055381	-10.350368	73.826309	40.489405	50.712333	2.239037	3.308664	13.467075	-0.439248	118.435992	24.639206	35.879529	-0.029667	-3.219923
8.615385	0.130986	-8.242113	99.880112	0.234928	0.763593	0.743637	0.893807	-0.051600	4.836557	0.613193	0.010702	30.725282	-9.518599	0.000000	-0.796785	-1.604439	10.367440	0.278318	0.004858	31.042658	-1.137917	0.000000	0.394736	0.638833	-0.465366	0.733063	0.849649	-0.494451	0.648511	1.553260	-0.494451	0.451143	1.553260	-0.407195	0.366551	1.302709	-0.378110	0.225552	0.989553	-0.349024	2.819556	7.226612	-2.588225	0.000000	0.000000	28.189214	8.199575	21.719432	9.285979	-10.301454	74.334775	40.550824	49.897402	2.510492	3.716393	12.795970	-1.850060	105.862411	27.890317	39.208750	0.804839	-1.585739
8.634615	0.013099	-8.162598	99.663405	0.234388	0.763625	0.744720	0.825974	-0.220530	5.499703	0.604168	0.010545	30.734291	-10.051794	0.000000	-0.871138	-1.404832	10.100490	0.263167	0.004593	31.172681	-1.555790	0.000000	0.414107	0.613820	-0.462464	0.769038	0.816381	-0.491368	0.680336	1.492443	-0.491368	0.473283	1.492443	-0.404656	0.384540	1.251703	-0.375752	0.236621	0.950808	-0.346848	2.957924	6.943659	-2.572084	0.000000	0.000000	28.205826	7.994641	22.004561	9.480954	-10.247670	74.672618	40.566049	49.169188	2.695551	4.012138	11.977630	-3.078544	94.114944	30.900511	42.186254	1.264916	-0.091472
